<mxfile host="app.diagrams.net" modified="2021-02-18T15:39:30.953Z" agent="5.0 (Windows NT 10.0; Win64; x64) AppleWebKit/537.36 (KHTML, like Gecko) Chrome/88.0.4324.150 Safari/537.36" etag="Lp40U-hQcIFWIw2E3b1g" version="14.4.2" type="github">
  <diagram id="C5RBs43oDa-KdzZeNtuy" name="Page-1">
    <mxGraphModel dx="700" dy="784" grid="1" gridSize="10" guides="1" tooltips="1" connect="1" arrows="1" fold="1" page="1" pageScale="1" pageWidth="827" pageHeight="1169" math="0" shadow="0">
      <root>
        <mxCell id="WIyWlLk6GJQsqaUBKTNV-0" />
        <mxCell id="WIyWlLk6GJQsqaUBKTNV-1" parent="WIyWlLk6GJQsqaUBKTNV-0" />
        <mxCell id="kpdjPYLvynA6Ji1GiDuN-0" value="Backend DB" style="strokeWidth=2;html=1;shape=mxgraph.flowchart.database;whiteSpace=wrap;" vertex="1" parent="WIyWlLk6GJQsqaUBKTNV-1">
          <mxGeometry x="340" y="470" width="132.5" height="140" as="geometry" />
        </mxCell>
        <mxCell id="kpdjPYLvynA6Ji1GiDuN-43" style="edgeStyle=orthogonalEdgeStyle;rounded=0;orthogonalLoop=1;jettySize=auto;html=1;exitX=0.25;exitY=1;exitDx=0;exitDy=0;entryX=0.5;entryY=0;entryDx=0;entryDy=0;" edge="1" parent="WIyWlLk6GJQsqaUBKTNV-1" source="kpdjPYLvynA6Ji1GiDuN-1" target="kpdjPYLvynA6Ji1GiDuN-17">
          <mxGeometry relative="1" as="geometry" />
        </mxCell>
        <mxCell id="kpdjPYLvynA6Ji1GiDuN-44" style="edgeStyle=orthogonalEdgeStyle;rounded=0;orthogonalLoop=1;jettySize=auto;html=1;exitX=0.5;exitY=1;exitDx=0;exitDy=0;entryX=0.5;entryY=0;entryDx=0;entryDy=0;" edge="1" parent="WIyWlLk6GJQsqaUBKTNV-1" source="kpdjPYLvynA6Ji1GiDuN-1" target="kpdjPYLvynA6Ji1GiDuN-18">
          <mxGeometry relative="1" as="geometry" />
        </mxCell>
        <mxCell id="kpdjPYLvynA6Ji1GiDuN-1" value="Wind Speed&lt;br&gt;Temperature&lt;br&gt;Cloud Cover&lt;br&gt;Error" style="shape=parallelogram;html=1;strokeWidth=2;perimeter=parallelogramPerimeter;whiteSpace=wrap;rounded=1;arcSize=12;size=0.23;" vertex="1" parent="WIyWlLk6GJQsqaUBKTNV-1">
          <mxGeometry x="400" y="220" width="130" height="75" as="geometry" />
        </mxCell>
        <mxCell id="kpdjPYLvynA6Ji1GiDuN-45" style="edgeStyle=orthogonalEdgeStyle;rounded=0;orthogonalLoop=1;jettySize=auto;html=1;exitX=0.5;exitY=1;exitDx=0;exitDy=0;" edge="1" parent="WIyWlLk6GJQsqaUBKTNV-1" source="kpdjPYLvynA6Ji1GiDuN-2" target="kpdjPYLvynA6Ji1GiDuN-1">
          <mxGeometry relative="1" as="geometry" />
        </mxCell>
        <mxCell id="kpdjPYLvynA6Ji1GiDuN-2" value="" style="ellipse;whiteSpace=wrap;html=1;aspect=fixed;" vertex="1" parent="WIyWlLk6GJQsqaUBKTNV-1">
          <mxGeometry x="440" y="120" width="50" height="50" as="geometry" />
        </mxCell>
        <mxCell id="kpdjPYLvynA6Ji1GiDuN-37" style="edgeStyle=orthogonalEdgeStyle;rounded=0;orthogonalLoop=1;jettySize=auto;html=1;entryX=0.5;entryY=1;entryDx=0;entryDy=0;" edge="1" parent="WIyWlLk6GJQsqaUBKTNV-1" source="kpdjPYLvynA6Ji1GiDuN-4" target="kpdjPYLvynA6Ji1GiDuN-32">
          <mxGeometry relative="1" as="geometry" />
        </mxCell>
        <mxCell id="kpdjPYLvynA6Ji1GiDuN-4" value="" style="ellipse;whiteSpace=wrap;html=1;aspect=fixed;" vertex="1" parent="WIyWlLk6GJQsqaUBKTNV-1">
          <mxGeometry x="720" y="760" width="50" height="50" as="geometry" />
        </mxCell>
        <mxCell id="kpdjPYLvynA6Ji1GiDuN-48" style="edgeStyle=orthogonalEdgeStyle;rounded=0;orthogonalLoop=1;jettySize=auto;html=1;exitX=0;exitY=0.5;exitDx=0;exitDy=0;entryX=1;entryY=0.5;entryDx=0;entryDy=0;entryPerimeter=0;" edge="1" parent="WIyWlLk6GJQsqaUBKTNV-1" source="kpdjPYLvynA6Ji1GiDuN-13" target="kpdjPYLvynA6Ji1GiDuN-0">
          <mxGeometry relative="1" as="geometry" />
        </mxCell>
        <mxCell id="kpdjPYLvynA6Ji1GiDuN-13" value="Energy Usage Module" style="rounded=1;whiteSpace=wrap;html=1;absoluteArcSize=1;arcSize=14;strokeWidth=2;" vertex="1" parent="WIyWlLk6GJQsqaUBKTNV-1">
          <mxGeometry x="560" y="470" width="100" height="100" as="geometry" />
        </mxCell>
        <mxCell id="kpdjPYLvynA6Ji1GiDuN-54" style="edgeStyle=orthogonalEdgeStyle;rounded=0;orthogonalLoop=1;jettySize=auto;html=1;exitX=0.5;exitY=1;exitDx=0;exitDy=0;entryX=0.5;entryY=0;entryDx=0;entryDy=0;entryPerimeter=0;" edge="1" parent="WIyWlLk6GJQsqaUBKTNV-1" source="kpdjPYLvynA6Ji1GiDuN-14" target="kpdjPYLvynA6Ji1GiDuN-19">
          <mxGeometry relative="1" as="geometry" />
        </mxCell>
        <mxCell id="kpdjPYLvynA6Ji1GiDuN-14" value="Frontend Module" style="rounded=1;whiteSpace=wrap;html=1;absoluteArcSize=1;arcSize=14;strokeWidth=2;" vertex="1" parent="WIyWlLk6GJQsqaUBKTNV-1">
          <mxGeometry x="180" y="490" width="100" height="100" as="geometry" />
        </mxCell>
        <mxCell id="kpdjPYLvynA6Ji1GiDuN-16" value="Energy Production Module" style="rounded=1;whiteSpace=wrap;html=1;absoluteArcSize=1;arcSize=14;strokeWidth=2;" vertex="1" parent="WIyWlLk6GJQsqaUBKTNV-1">
          <mxGeometry x="200" y="330" width="100" height="100" as="geometry" />
        </mxCell>
        <mxCell id="kpdjPYLvynA6Ji1GiDuN-17" value="Weather Forecasting Module" style="rounded=1;whiteSpace=wrap;html=1;absoluteArcSize=1;arcSize=14;strokeWidth=2;" vertex="1" parent="WIyWlLk6GJQsqaUBKTNV-1">
          <mxGeometry x="340" y="330" width="100" height="100" as="geometry" />
        </mxCell>
        <mxCell id="kpdjPYLvynA6Ji1GiDuN-18" value="Error Management" style="rounded=1;whiteSpace=wrap;html=1;absoluteArcSize=1;arcSize=14;strokeWidth=2;" vertex="1" parent="WIyWlLk6GJQsqaUBKTNV-1">
          <mxGeometry x="490" y="330" width="100" height="100" as="geometry" />
        </mxCell>
        <mxCell id="kpdjPYLvynA6Ji1GiDuN-19" value="Website" style="strokeWidth=2;html=1;shape=mxgraph.flowchart.document2;whiteSpace=wrap;size=0.25;" vertex="1" parent="WIyWlLk6GJQsqaUBKTNV-1">
          <mxGeometry x="180" y="630" width="100" height="60" as="geometry" />
        </mxCell>
        <mxCell id="kpdjPYLvynA6Ji1GiDuN-31" value="Frontend Module" style="rounded=1;whiteSpace=wrap;html=1;absoluteArcSize=1;arcSize=14;strokeWidth=2;" vertex="1" parent="WIyWlLk6GJQsqaUBKTNV-1">
          <mxGeometry x="330" y="660" width="100" height="100" as="geometry" />
        </mxCell>
        <mxCell id="kpdjPYLvynA6Ji1GiDuN-32" value="Energy Prices" style="shape=parallelogram;html=1;strokeWidth=2;perimeter=parallelogramPerimeter;whiteSpace=wrap;rounded=1;arcSize=12;size=0.23;" vertex="1" parent="WIyWlLk6GJQsqaUBKTNV-1">
          <mxGeometry x="680" y="640" width="130" height="75" as="geometry" />
        </mxCell>
        <mxCell id="kpdjPYLvynA6Ji1GiDuN-49" style="edgeStyle=orthogonalEdgeStyle;rounded=0;orthogonalLoop=1;jettySize=auto;html=1;exitX=0;exitY=0;exitDx=0;exitDy=0;entryX=1;entryY=0.85;entryDx=0;entryDy=0;entryPerimeter=0;" edge="1" parent="WIyWlLk6GJQsqaUBKTNV-1" source="kpdjPYLvynA6Ji1GiDuN-35" target="kpdjPYLvynA6Ji1GiDuN-0">
          <mxGeometry relative="1" as="geometry" />
        </mxCell>
        <mxCell id="kpdjPYLvynA6Ji1GiDuN-35" value="Energy Sale Module" style="rounded=1;whiteSpace=wrap;html=1;absoluteArcSize=1;arcSize=14;strokeWidth=2;" vertex="1" parent="WIyWlLk6GJQsqaUBKTNV-1">
          <mxGeometry x="510" y="630" width="100" height="100" as="geometry" />
        </mxCell>
        <mxCell id="kpdjPYLvynA6Ji1GiDuN-50" value="" style="endArrow=classic;html=1;exitX=-0.015;exitY=0.686;exitDx=0;exitDy=0;exitPerimeter=0;entryX=1;entryY=0.75;entryDx=0;entryDy=0;" edge="1" parent="WIyWlLk6GJQsqaUBKTNV-1" source="kpdjPYLvynA6Ji1GiDuN-0" target="kpdjPYLvynA6Ji1GiDuN-14">
          <mxGeometry width="50" height="50" relative="1" as="geometry">
            <mxPoint x="480" y="690" as="sourcePoint" />
            <mxPoint x="530" y="640" as="targetPoint" />
          </mxGeometry>
        </mxCell>
        <mxCell id="kpdjPYLvynA6Ji1GiDuN-51" value="" style="endArrow=classic;html=1;" edge="1" parent="WIyWlLk6GJQsqaUBKTNV-1">
          <mxGeometry width="50" height="50" relative="1" as="geometry">
            <mxPoint x="280" y="520" as="sourcePoint" />
            <mxPoint x="339" y="520" as="targetPoint" />
          </mxGeometry>
        </mxCell>
      </root>
    </mxGraphModel>
  </diagram>
</mxfile>
